# xmcd CD database file
#
# Track frame offsets:
#	150
#	30645
#	52980
#	75707
#	100015
#	121877
#	152062
#	175570
#	202775
#	237070
#
# Disc length: 3642 seconds
#
# Revision: 1
# Processed by: cddbd v1.5.1PL0 Copyright (c) Steve Scherf et al.
# Submitted via: CDex 1.51
#
DISCID=670e380a
DTITLE=Fusanosuke and His B&O - Live at Blues Alley Japan
DYEAR=1900
DGENRE=Blues
TTITLE0=I'll Keep Tryin'
TTITLE1=Let's Have A Natural Ball
TTITLE2=Hoochie Coochie Man
TTITLE3=Out Of Bad Luck
TTITLE4=Hip Hug Her
TTITLE5=Warrior Boy
TTITLE6=Stormy Monday
TTITLE7=Same Ol' Blues
TTITLE8=Someone Like You
TTITLE9=Travelling
EXTD=
EXTT0=
EXTT1=
EXTT2=
EXTT3=
EXTT4=
EXTT5=
EXTT6=
EXTT7=
EXTT8=
EXTT9=
PLAYORDER=
